<svg xmlns="http://www.w3.org/2000/svg" viewBox="0 0 128 128">
  <!-- 앱 아이콘: 정보의 바다 위 시작의 섬과 진실의 등대 (코드 작성 벡터 — 외부 에셋 0 원칙) -->
  <rect width="128" height="128" rx="24" fill="#2f6bd8"/>
  <circle cx="64" cy="104" r="52" fill="#3f9fd8"/>
  <ellipse cx="64" cy="96" rx="40" ry="16" fill="#7ed36a"/>
  <ellipse cx="64" cy="96" rx="40" ry="16" fill="none" stroke="#f0dc98" stroke-width="3"/>
  <g>
    <rect x="56" y="38" width="16" height="52" rx="3" fill="#f4f1e6"/>
    <rect x="55" y="52" width="18" height="8" fill="#d95f4e"/>
    <rect x="55" y="70" width="18" height="8" fill="#d95f4e"/>
    <rect x="53" y="30" width="22" height="10" rx="3" fill="#bfeaff"/>
    <circle cx="64" cy="35" r="4" fill="#fff2b8"/>
    <path d="M75 35 L108 24 L108 46 Z" fill="#fff0b0" opacity="0.75"/>
    <path d="M53 35 L20 24 L20 46 Z" fill="#fff0b0" opacity="0.75"/>
    <path d="M64 30 L54 20 h20 Z" fill="#d95f4e"/>
  </g>
  <circle cx="30" cy="99" r="3" fill="#8fe0ff"/>
  <circle cx="42" cy="106" r="3" fill="#8fe0ff"/>
  <circle cx="88" cy="103" r="3" fill="#8fe0ff"/>
</svg>
